<mxfile host="app.diagrams.net" modified="2023-12-21T13:51:26.703Z" agent="Mozilla/5.0 (Macintosh; Intel Mac OS X 10_15_7) AppleWebKit/605.1.15 (KHTML, like Gecko) Version/16.6 Safari/605.1.15" etag="0qmrSexFRdilIxYj82eJ" version="22.1.11" type="device">
  <diagram name="Page-1" id="2gk1e6h6jZ5hzgqR4Qzt">
    <mxGraphModel dx="4780" dy="2557" grid="0" gridSize="10" guides="1" tooltips="1" connect="1" arrows="1" fold="1" page="0" pageScale="1" pageWidth="827" pageHeight="1169" math="0" shadow="0">
      <root>
        <mxCell id="0" />
        <mxCell id="1" parent="0" />
        <mxCell id="tEDepKTHtc-FestoL4mM-16" value="" style="rounded=0;whiteSpace=wrap;html=1;fillColor=#f8cecc;strokeColor=#b85450;" parent="1" vertex="1">
          <mxGeometry x="-1280" y="670" width="2500" height="150" as="geometry" />
        </mxCell>
        <mxCell id="tEDepKTHtc-FestoL4mM-15" value="" style="rounded=0;whiteSpace=wrap;html=1;fillColor=#fff2cc;strokeColor=#d6b656;" parent="1" vertex="1">
          <mxGeometry x="-1280" y="520" width="2500" height="150" as="geometry" />
        </mxCell>
        <mxCell id="tEDepKTHtc-FestoL4mM-13" value="" style="rounded=0;whiteSpace=wrap;html=1;fillColor=#fff2cc;strokeColor=#d6b656;" parent="1" vertex="1">
          <mxGeometry x="-1280" y="220" width="2500" height="150" as="geometry" />
        </mxCell>
        <mxCell id="tEDepKTHtc-FestoL4mM-14" value="" style="rounded=0;whiteSpace=wrap;html=1;fillColor=#f8cecc;strokeColor=#b85450;" parent="1" vertex="1">
          <mxGeometry x="-1280" y="370" width="2500" height="150" as="geometry" />
        </mxCell>
        <mxCell id="tEDepKTHtc-FestoL4mM-12" value="" style="rounded=0;whiteSpace=wrap;html=1;fillColor=#f8cecc;strokeColor=#b85450;" parent="1" vertex="1">
          <mxGeometry x="-1280" y="70" width="2500" height="150" as="geometry" />
        </mxCell>
        <mxCell id="tEDepKTHtc-FestoL4mM-11" value="" style="rounded=0;whiteSpace=wrap;html=1;fillColor=#fff2cc;strokeColor=#d6b656;" parent="1" vertex="1">
          <mxGeometry x="-1280" y="-80" width="2500" height="150" as="geometry" />
        </mxCell>
        <mxCell id="tEDepKTHtc-FestoL4mM-10" value="" style="rounded=0;whiteSpace=wrap;html=1;fillColor=#f8cecc;strokeColor=#b85450;" parent="1" vertex="1">
          <mxGeometry x="-1280" y="-230" width="2500" height="150" as="geometry" />
        </mxCell>
        <mxCell id="9jgS5PofpSKo_SQZTuaq-10" style="edgeStyle=orthogonalEdgeStyle;rounded=0;orthogonalLoop=1;jettySize=auto;html=1;exitX=0;exitY=0.5;exitDx=0;exitDy=0;entryX=1;entryY=0.5;entryDx=0;entryDy=0;" edge="1" parent="1" source="pWVEINPeNuQL2jkPcfjg-359" target="pWVEINPeNuQL2jkPcfjg-370">
          <mxGeometry relative="1" as="geometry" />
        </mxCell>
        <mxCell id="pWVEINPeNuQL2jkPcfjg-359" value="&lt;div style=&quot;&quot; title=&quot;Page 10&quot; class=&quot;page&quot;&gt;&lt;div class=&quot;section&quot;&gt;&lt;div class=&quot;layoutArea&quot;&gt;&lt;div class=&quot;column&quot;&gt;&lt;p&gt;Biztonságtechnika és munkavédelem&lt;/p&gt;&lt;p&gt;2 0 0 f&amp;nbsp;&lt;/p&gt;&lt;p&gt;2&lt;/p&gt;&lt;/div&gt;&lt;/div&gt;&lt;/div&gt;&lt;/div&gt;" style="whiteSpace=wrap;html=1;fillColor=#66B2FF;" parent="1" vertex="1">
          <mxGeometry x="750" y="-200" width="182" height="92" as="geometry" />
        </mxCell>
        <mxCell id="9jgS5PofpSKo_SQZTuaq-11" value="" style="edgeStyle=orthogonalEdgeStyle;rounded=0;orthogonalLoop=1;jettySize=auto;html=1;" edge="1" parent="1" source="pWVEINPeNuQL2jkPcfjg-360" target="pWVEINPeNuQL2jkPcfjg-372">
          <mxGeometry relative="1" as="geometry" />
        </mxCell>
        <mxCell id="9jgS5PofpSKo_SQZTuaq-13" style="edgeStyle=orthogonalEdgeStyle;rounded=0;orthogonalLoop=1;jettySize=auto;html=1;exitX=0.75;exitY=1;exitDx=0;exitDy=0;entryX=0.25;entryY=0;entryDx=0;entryDy=0;" edge="1" parent="1" source="pWVEINPeNuQL2jkPcfjg-360" target="pWVEINPeNuQL2jkPcfjg-370">
          <mxGeometry relative="1" as="geometry">
            <Array as="points">
              <mxPoint x="387" y="-93" />
              <mxPoint x="545" y="-93" />
            </Array>
          </mxGeometry>
        </mxCell>
        <mxCell id="9jgS5PofpSKo_SQZTuaq-17" style="edgeStyle=orthogonalEdgeStyle;rounded=0;orthogonalLoop=1;jettySize=auto;html=1;exitX=0;exitY=0.5;exitDx=0;exitDy=0;entryX=0.75;entryY=0;entryDx=0;entryDy=0;" edge="1" parent="1" source="pWVEINPeNuQL2jkPcfjg-360" target="pWVEINPeNuQL2jkPcfjg-369">
          <mxGeometry relative="1" as="geometry" />
        </mxCell>
        <mxCell id="9jgS5PofpSKo_SQZTuaq-29" style="edgeStyle=orthogonalEdgeStyle;rounded=0;orthogonalLoop=1;jettySize=auto;html=1;exitX=0.25;exitY=1;exitDx=0;exitDy=0;entryX=0.75;entryY=0;entryDx=0;entryDy=0;" edge="1" parent="1" source="pWVEINPeNuQL2jkPcfjg-360" target="pWVEINPeNuQL2jkPcfjg-378">
          <mxGeometry relative="1" as="geometry">
            <Array as="points">
              <mxPoint x="296" y="-90" />
              <mxPoint x="-113" y="-90" />
            </Array>
          </mxGeometry>
        </mxCell>
        <mxCell id="9jgS5PofpSKo_SQZTuaq-34" style="edgeStyle=orthogonalEdgeStyle;rounded=0;orthogonalLoop=1;jettySize=auto;html=1;exitX=0;exitY=0.75;exitDx=0;exitDy=0;entryX=0;entryY=0.5;entryDx=0;entryDy=0;" edge="1" parent="1" source="pWVEINPeNuQL2jkPcfjg-360" target="pWVEINPeNuQL2jkPcfjg-385">
          <mxGeometry relative="1" as="geometry" />
        </mxCell>
        <mxCell id="pWVEINPeNuQL2jkPcfjg-360" value="&lt;div style=&quot;&quot; title=&quot;Page 10&quot; class=&quot;page&quot;&gt;&lt;div class=&quot;section&quot;&gt;&lt;div class=&quot;layoutArea&quot;&gt;&lt;div class=&quot;column&quot;&gt;&lt;p&gt;Általános Kémia&lt;/p&gt;&lt;p&gt;4 0 0 v&amp;nbsp;&lt;/p&gt;&lt;p&gt;5&lt;/p&gt;&lt;/div&gt;&lt;/div&gt;&lt;/div&gt;&lt;/div&gt;" style="whiteSpace=wrap;html=1;fillColor=#FF99FF;" parent="1" vertex="1">
          <mxGeometry x="250" y="-200" width="182" height="92" as="geometry" />
        </mxCell>
        <mxCell id="9jgS5PofpSKo_SQZTuaq-7" value="" style="edgeStyle=orthogonalEdgeStyle;rounded=0;orthogonalLoop=1;jettySize=auto;html=1;" edge="1" parent="1" source="pWVEINPeNuQL2jkPcfjg-361" target="pWVEINPeNuQL2jkPcfjg-370">
          <mxGeometry relative="1" as="geometry" />
        </mxCell>
        <mxCell id="9jgS5PofpSKo_SQZTuaq-15" style="edgeStyle=orthogonalEdgeStyle;rounded=0;orthogonalLoop=1;jettySize=auto;html=1;entryX=1;entryY=0.5;entryDx=0;entryDy=0;" edge="1" parent="1" source="pWVEINPeNuQL2jkPcfjg-361" target="pWVEINPeNuQL2jkPcfjg-372">
          <mxGeometry relative="1" as="geometry" />
        </mxCell>
        <mxCell id="9jgS5PofpSKo_SQZTuaq-16" style="edgeStyle=orthogonalEdgeStyle;rounded=0;orthogonalLoop=1;jettySize=auto;html=1;exitX=0.25;exitY=0;exitDx=0;exitDy=0;" edge="1" parent="1" source="pWVEINPeNuQL2jkPcfjg-361" target="pWVEINPeNuQL2jkPcfjg-369">
          <mxGeometry relative="1" as="geometry">
            <Array as="points">
              <mxPoint x="546" y="-212" />
              <mxPoint x="91" y="-212" />
            </Array>
          </mxGeometry>
        </mxCell>
        <mxCell id="9jgS5PofpSKo_SQZTuaq-22" style="edgeStyle=orthogonalEdgeStyle;rounded=0;orthogonalLoop=1;jettySize=auto;html=1;exitX=0;exitY=0.75;exitDx=0;exitDy=0;entryX=1;entryY=0.5;entryDx=0;entryDy=0;" edge="1" parent="1" source="pWVEINPeNuQL2jkPcfjg-361" target="pWVEINPeNuQL2jkPcfjg-377">
          <mxGeometry relative="1" as="geometry">
            <Array as="points">
              <mxPoint x="482" y="-131" />
              <mxPoint x="482" y="145" />
            </Array>
          </mxGeometry>
        </mxCell>
        <mxCell id="9jgS5PofpSKo_SQZTuaq-35" style="edgeStyle=orthogonalEdgeStyle;rounded=0;orthogonalLoop=1;jettySize=auto;html=1;exitX=0;exitY=0.25;exitDx=0;exitDy=0;entryX=1;entryY=0.5;entryDx=0;entryDy=0;" edge="1" parent="1" source="pWVEINPeNuQL2jkPcfjg-361" target="pWVEINPeNuQL2jkPcfjg-385">
          <mxGeometry relative="1" as="geometry">
            <Array as="points">
              <mxPoint x="450" y="-177" />
              <mxPoint x="450" y="295" />
            </Array>
          </mxGeometry>
        </mxCell>
        <mxCell id="9jgS5PofpSKo_SQZTuaq-38" style="edgeStyle=orthogonalEdgeStyle;rounded=0;orthogonalLoop=1;jettySize=auto;html=1;exitX=0.5;exitY=0;exitDx=0;exitDy=0;entryX=0.75;entryY=0;entryDx=0;entryDy=0;" edge="1" parent="1" source="pWVEINPeNuQL2jkPcfjg-361" target="pWVEINPeNuQL2jkPcfjg-382">
          <mxGeometry relative="1" as="geometry">
            <Array as="points">
              <mxPoint x="591" y="-222" />
              <mxPoint x="-10" y="-222" />
              <mxPoint x="-10" y="232" />
              <mxPoint x="-113" y="232" />
            </Array>
          </mxGeometry>
        </mxCell>
        <mxCell id="pWVEINPeNuQL2jkPcfjg-361" value="&lt;div style=&quot;&quot; title=&quot;Page 10&quot; class=&quot;page&quot;&gt;&lt;div class=&quot;section&quot;&gt;&lt;div class=&quot;layoutArea&quot;&gt;&lt;div class=&quot;column&quot;&gt;&lt;p&gt;Általános Kémia gyakorlat Biomérnököknek&lt;/p&gt;&lt;p&gt;0 3 0 f&amp;nbsp;&lt;/p&gt;&lt;p&gt;4&lt;/p&gt;&lt;/div&gt;&lt;/div&gt;&lt;/div&gt;&lt;/div&gt;" style="whiteSpace=wrap;html=1;fillColor=#FF99FF;" parent="1" vertex="1">
          <mxGeometry x="500" y="-200" width="182" height="92" as="geometry" />
        </mxCell>
        <mxCell id="9jgS5PofpSKo_SQZTuaq-5" style="edgeStyle=orthogonalEdgeStyle;rounded=0;orthogonalLoop=1;jettySize=auto;html=1;exitX=0.75;exitY=1;exitDx=0;exitDy=0;entryX=0.5;entryY=0;entryDx=0;entryDy=0;" edge="1" parent="1" source="pWVEINPeNuQL2jkPcfjg-362" target="pWVEINPeNuQL2jkPcfjg-368">
          <mxGeometry relative="1" as="geometry">
            <Array as="points">
              <mxPoint x="-863" y="-88" />
              <mxPoint x="-659" y="-88" />
            </Array>
          </mxGeometry>
        </mxCell>
        <mxCell id="9jgS5PofpSKo_SQZTuaq-6" value="" style="edgeStyle=orthogonalEdgeStyle;rounded=0;orthogonalLoop=1;jettySize=auto;html=1;" edge="1" parent="1" source="pWVEINPeNuQL2jkPcfjg-362" target="pWVEINPeNuQL2jkPcfjg-366">
          <mxGeometry relative="1" as="geometry" />
        </mxCell>
        <mxCell id="9jgS5PofpSKo_SQZTuaq-27" style="edgeStyle=orthogonalEdgeStyle;rounded=0;orthogonalLoop=1;jettySize=auto;html=1;exitX=1;exitY=0.75;exitDx=0;exitDy=0;" edge="1" parent="1" source="pWVEINPeNuQL2jkPcfjg-362" target="pWVEINPeNuQL2jkPcfjg-378">
          <mxGeometry relative="1" as="geometry">
            <Array as="points">
              <mxPoint x="-843" y="-131" />
              <mxPoint x="-843" y="-96" />
              <mxPoint x="-208" y="-96" />
            </Array>
          </mxGeometry>
        </mxCell>
        <mxCell id="pWVEINPeNuQL2jkPcfjg-362" value="&lt;div style=&quot;&quot; title=&quot;Page 10&quot; class=&quot;page&quot;&gt;&lt;div class=&quot;section&quot;&gt;&lt;div class=&quot;layoutArea&quot;&gt;&lt;div class=&quot;column&quot;&gt;&lt;p&gt;Matematika A1 - Analízis&lt;/p&gt;&lt;p&gt;4 2 0 v&amp;nbsp;&lt;/p&gt;&lt;p&gt;6&lt;br&gt;&lt;/p&gt;&lt;/div&gt;&lt;/div&gt;&lt;/div&gt;&lt;/div&gt;" style="whiteSpace=wrap;html=1;fillColor=#FF99FF;" parent="1" vertex="1">
          <mxGeometry x="-1000" y="-200" width="182" height="92" as="geometry" />
        </mxCell>
        <mxCell id="9jgS5PofpSKo_SQZTuaq-33" style="edgeStyle=orthogonalEdgeStyle;rounded=0;orthogonalLoop=1;jettySize=auto;html=1;entryX=0;entryY=0.5;entryDx=0;entryDy=0;" edge="1" parent="1" source="pWVEINPeNuQL2jkPcfjg-363" target="pWVEINPeNuQL2jkPcfjg-384">
          <mxGeometry relative="1" as="geometry">
            <Array as="points">
              <mxPoint x="-659" y="-211" />
              <mxPoint x="-38" y="-211" />
              <mxPoint x="-38" y="295" />
            </Array>
          </mxGeometry>
        </mxCell>
        <mxCell id="9jgS5PofpSKo_SQZTuaq-42" style="edgeStyle=orthogonalEdgeStyle;rounded=0;orthogonalLoop=1;jettySize=auto;html=1;exitX=1;exitY=0.5;exitDx=0;exitDy=0;entryX=0.75;entryY=0;entryDx=0;entryDy=0;" edge="1" parent="1" source="pWVEINPeNuQL2jkPcfjg-363" target="pWVEINPeNuQL2jkPcfjg-387">
          <mxGeometry relative="1" as="geometry">
            <Array as="points">
              <mxPoint x="-528" y="-154" />
              <mxPoint x="-528" y="207" />
              <mxPoint x="-613" y="207" />
            </Array>
          </mxGeometry>
        </mxCell>
        <mxCell id="pWVEINPeNuQL2jkPcfjg-363" value="&lt;div style=&quot;&quot; title=&quot;Page 10&quot; class=&quot;page&quot;&gt;&lt;div class=&quot;section&quot;&gt;&lt;div class=&quot;layoutArea&quot;&gt;&lt;div class=&quot;column&quot;&gt;&lt;p&gt;Sejtbiológia&amp;nbsp;&lt;/p&gt;&lt;p&gt;3 0 0 v&amp;nbsp;&lt;/p&gt;&lt;p&gt;4&lt;/p&gt;&lt;/div&gt;&lt;/div&gt;&lt;/div&gt;&lt;/div&gt;" style="whiteSpace=wrap;html=1;fillColor=#FF99FF;" parent="1" vertex="1">
          <mxGeometry x="-750" y="-200" width="182" height="92" as="geometry" />
        </mxCell>
        <mxCell id="pWVEINPeNuQL2jkPcfjg-364" value="&lt;div style=&quot;&quot; title=&quot;Page 10&quot; class=&quot;page&quot;&gt;&lt;div class=&quot;section&quot;&gt;&lt;div class=&quot;layoutArea&quot;&gt;&lt;div class=&quot;column&quot;&gt;&lt;p&gt;A környezetvédelem alapjai&lt;/p&gt;&lt;p&gt;2 0 0 f&amp;nbsp;&lt;br&gt;&lt;/p&gt;&lt;p&gt;2&lt;/p&gt;&lt;/div&gt;&lt;/div&gt;&lt;/div&gt;&lt;/div&gt;" style="whiteSpace=wrap;html=1;" parent="1" vertex="1">
          <mxGeometry x="-500" y="-200" width="182" height="92" as="geometry" />
        </mxCell>
        <mxCell id="pWVEINPeNuQL2jkPcfjg-365" value="&lt;div style=&quot;&quot; title=&quot;Page 10&quot; class=&quot;page&quot;&gt;&lt;div class=&quot;section&quot;&gt;&lt;div class=&quot;layoutArea&quot;&gt;&lt;div class=&quot;column&quot;&gt;&lt;p&gt;Számítástechnika&amp;nbsp;&lt;/p&gt;&lt;p&gt;0 2 0 f&amp;nbsp;&lt;br&gt;&lt;/p&gt;&lt;p&gt;2&lt;/p&gt;&lt;/div&gt;&lt;/div&gt;&lt;/div&gt;&lt;/div&gt;" style="whiteSpace=wrap;html=1;" parent="1" vertex="1">
          <mxGeometry x="-1250" y="-200" width="182" height="92" as="geometry" />
        </mxCell>
        <mxCell id="9jgS5PofpSKo_SQZTuaq-24" style="edgeStyle=orthogonalEdgeStyle;rounded=0;orthogonalLoop=1;jettySize=auto;html=1;entryX=0.25;entryY=0;entryDx=0;entryDy=0;" edge="1" parent="1" source="pWVEINPeNuQL2jkPcfjg-366" target="pWVEINPeNuQL2jkPcfjg-374">
          <mxGeometry relative="1" as="geometry">
            <Array as="points">
              <mxPoint x="-909" y="62" />
              <mxPoint x="-704" y="62" />
            </Array>
          </mxGeometry>
        </mxCell>
        <mxCell id="9jgS5PofpSKo_SQZTuaq-47" style="edgeStyle=orthogonalEdgeStyle;rounded=0;orthogonalLoop=1;jettySize=auto;html=1;exitX=1;exitY=0.5;exitDx=0;exitDy=0;entryX=1;entryY=0.5;entryDx=0;entryDy=0;" edge="1" parent="1" source="pWVEINPeNuQL2jkPcfjg-366" target="pWVEINPeNuQL2jkPcfjg-383">
          <mxGeometry relative="1" as="geometry" />
        </mxCell>
        <mxCell id="pWVEINPeNuQL2jkPcfjg-366" value="&lt;div style=&quot;&quot; title=&quot;Page 10&quot; class=&quot;page&quot;&gt;&lt;div class=&quot;section&quot;&gt;&lt;div class=&quot;layoutArea&quot;&gt;&lt;div class=&quot;column&quot;&gt;&lt;p&gt;Matematika A2c&lt;/p&gt;&lt;p&gt;4 2 0 v&amp;nbsp;&lt;br&gt;&lt;/p&gt;&lt;p&gt;6&lt;/p&gt;&lt;/div&gt;&lt;/div&gt;&lt;/div&gt;&lt;/div&gt;" style="whiteSpace=wrap;html=1;fillColor=#FF99FF;" parent="1" vertex="1">
          <mxGeometry x="-1000" y="-51" width="182" height="92" as="geometry" />
        </mxCell>
        <mxCell id="9jgS5PofpSKo_SQZTuaq-31" value="" style="edgeStyle=orthogonalEdgeStyle;rounded=0;orthogonalLoop=1;jettySize=auto;html=1;" edge="1" parent="1" source="pWVEINPeNuQL2jkPcfjg-367" target="pWVEINPeNuQL2jkPcfjg-379">
          <mxGeometry relative="1" as="geometry" />
        </mxCell>
        <mxCell id="9jgS5PofpSKo_SQZTuaq-41" style="edgeStyle=orthogonalEdgeStyle;rounded=0;orthogonalLoop=1;jettySize=auto;html=1;exitX=1;exitY=0.5;exitDx=0;exitDy=0;entryX=0.25;entryY=0;entryDx=0;entryDy=0;" edge="1" parent="1" source="pWVEINPeNuQL2jkPcfjg-367" target="pWVEINPeNuQL2jkPcfjg-387">
          <mxGeometry relative="1" as="geometry">
            <Array as="points">
              <mxPoint x="-1035" y="-5" />
              <mxPoint x="-1035" y="205" />
              <mxPoint x="-704" y="205" />
            </Array>
          </mxGeometry>
        </mxCell>
        <mxCell id="9jgS5PofpSKo_SQZTuaq-44" style="edgeStyle=orthogonalEdgeStyle;rounded=0;orthogonalLoop=1;jettySize=auto;html=1;exitX=0;exitY=0.5;exitDx=0;exitDy=0;entryX=0;entryY=0.5;entryDx=0;entryDy=0;" edge="1" parent="1" source="pWVEINPeNuQL2jkPcfjg-367" target="pWVEINPeNuQL2jkPcfjg-388">
          <mxGeometry relative="1" as="geometry">
            <Array as="points">
              <mxPoint x="-1262" y="-5" />
              <mxPoint x="-1262" y="295" />
            </Array>
          </mxGeometry>
        </mxCell>
        <mxCell id="pWVEINPeNuQL2jkPcfjg-367" value="&lt;div style=&quot;&quot; title=&quot;Page 10&quot; class=&quot;page&quot;&gt;&lt;div class=&quot;section&quot;&gt;&lt;div class=&quot;layoutArea&quot;&gt;&lt;div class=&quot;column&quot;&gt;&lt;p&gt;Mikrobiológia&amp;nbsp;&lt;/p&gt;&lt;p&gt;2 0 0 f&amp;nbsp;&lt;/p&gt;&lt;p&gt;3&lt;/p&gt;&lt;/div&gt;&lt;/div&gt;&lt;/div&gt;&lt;/div&gt;" style="whiteSpace=wrap;html=1;fillColor=#FF99FF;" parent="1" vertex="1">
          <mxGeometry x="-1250" y="-51" width="182" height="92" as="geometry" />
        </mxCell>
        <mxCell id="9jgS5PofpSKo_SQZTuaq-23" value="" style="edgeStyle=orthogonalEdgeStyle;rounded=0;orthogonalLoop=1;jettySize=auto;html=1;" edge="1" parent="1" source="pWVEINPeNuQL2jkPcfjg-368" target="pWVEINPeNuQL2jkPcfjg-374">
          <mxGeometry relative="1" as="geometry" />
        </mxCell>
        <mxCell id="9jgS5PofpSKo_SQZTuaq-30" style="edgeStyle=orthogonalEdgeStyle;rounded=0;orthogonalLoop=1;jettySize=auto;html=1;" edge="1" parent="1" source="pWVEINPeNuQL2jkPcfjg-368" target="pWVEINPeNuQL2jkPcfjg-375">
          <mxGeometry relative="1" as="geometry" />
        </mxCell>
        <mxCell id="pWVEINPeNuQL2jkPcfjg-368" value="&lt;div style=&quot;&quot; title=&quot;Page 10&quot; class=&quot;page&quot;&gt;&lt;div class=&quot;section&quot;&gt;&lt;div class=&quot;layoutArea&quot;&gt;&lt;div class=&quot;column&quot;&gt;&lt;p&gt;Fizika 1 - Mechanika&lt;/p&gt;&lt;p&gt;2 2 0 v&amp;nbsp;&lt;br&gt;&lt;/p&gt;&lt;p&gt;4&lt;/p&gt;&lt;/div&gt;&lt;/div&gt;&lt;/div&gt;&lt;/div&gt;" style="whiteSpace=wrap;html=1;fillColor=#FF99FF;" parent="1" vertex="1">
          <mxGeometry x="-750" y="-51" width="182" height="92" as="geometry" />
        </mxCell>
        <mxCell id="9jgS5PofpSKo_SQZTuaq-19" value="" style="edgeStyle=orthogonalEdgeStyle;rounded=0;orthogonalLoop=1;jettySize=auto;html=1;" edge="1" parent="1" source="pWVEINPeNuQL2jkPcfjg-369" target="pWVEINPeNuQL2jkPcfjg-373">
          <mxGeometry relative="1" as="geometry" />
        </mxCell>
        <mxCell id="9jgS5PofpSKo_SQZTuaq-21" style="edgeStyle=orthogonalEdgeStyle;rounded=0;orthogonalLoop=1;jettySize=auto;html=1;exitX=0.75;exitY=1;exitDx=0;exitDy=0;" edge="1" parent="1" source="pWVEINPeNuQL2jkPcfjg-369" target="pWVEINPeNuQL2jkPcfjg-377">
          <mxGeometry relative="1" as="geometry">
            <Array as="points">
              <mxPoint x="137" y="57" />
              <mxPoint x="341" y="57" />
            </Array>
          </mxGeometry>
        </mxCell>
        <mxCell id="pWVEINPeNuQL2jkPcfjg-369" value="&lt;div style=&quot;&quot; title=&quot;Page 10&quot; class=&quot;page&quot;&gt;&lt;div class=&quot;section&quot;&gt;&lt;div class=&quot;layoutArea&quot;&gt;&lt;div class=&quot;column&quot;&gt;&lt;p&gt;Szerves kémia biomérnököknek&lt;/p&gt;&lt;p&gt;3 2 0 v&amp;nbsp;&lt;br&gt;&lt;/p&gt;&lt;p&gt;6&lt;/p&gt;&lt;/div&gt;&lt;/div&gt;&lt;/div&gt;&lt;/div&gt;" style="whiteSpace=wrap;html=1;fillColor=#FF99FF;" parent="1" vertex="1">
          <mxGeometry y="-51" width="182" height="92" as="geometry" />
        </mxCell>
        <mxCell id="9jgS5PofpSKo_SQZTuaq-51" style="edgeStyle=orthogonalEdgeStyle;rounded=0;orthogonalLoop=1;jettySize=auto;html=1;exitX=0.5;exitY=1;exitDx=0;exitDy=0;entryX=0.5;entryY=0;entryDx=0;entryDy=0;" edge="1" parent="1" source="pWVEINPeNuQL2jkPcfjg-370" target="pWVEINPeNuQL2jkPcfjg-389">
          <mxGeometry relative="1" as="geometry" />
        </mxCell>
        <mxCell id="pWVEINPeNuQL2jkPcfjg-370" value="&lt;div style=&quot;&quot; title=&quot;Page 10&quot; class=&quot;page&quot;&gt;&lt;div class=&quot;section&quot;&gt;&lt;div class=&quot;layoutArea&quot;&gt;&lt;div class=&quot;column&quot;&gt;&lt;p&gt;Általános és szervetlen kémia labor&lt;/p&gt;&lt;p&gt;0 0 6 f&amp;nbsp;&lt;br&gt;&lt;/p&gt;&lt;p&gt;5&lt;/p&gt;&lt;/div&gt;&lt;/div&gt;&lt;/div&gt;&lt;/div&gt;" style="whiteSpace=wrap;html=1;" parent="1" vertex="1">
          <mxGeometry x="500" y="-51" width="182" height="92" as="geometry" />
        </mxCell>
        <mxCell id="9jgS5PofpSKo_SQZTuaq-48" style="edgeStyle=orthogonalEdgeStyle;rounded=0;orthogonalLoop=1;jettySize=auto;html=1;exitX=0.5;exitY=1;exitDx=0;exitDy=0;strokeWidth=2;" edge="1" parent="1" source="pWVEINPeNuQL2jkPcfjg-371" target="pWVEINPeNuQL2jkPcfjg-383">
          <mxGeometry relative="1" as="geometry">
            <Array as="points">
              <mxPoint x="841" y="80" />
              <mxPoint x="-1017" y="80" />
              <mxPoint x="-1017" y="295" />
            </Array>
          </mxGeometry>
        </mxCell>
        <mxCell id="pWVEINPeNuQL2jkPcfjg-371" value="&lt;div style=&quot;&quot; title=&quot;Page 10&quot; class=&quot;page&quot;&gt;&lt;div class=&quot;section&quot;&gt;&lt;div class=&quot;layoutArea&quot;&gt;&lt;div class=&quot;column&quot;&gt;&lt;p&gt;Vegyipari géptan&lt;/p&gt;&lt;p&gt;2 0 0 f&amp;nbsp;&lt;br&gt;&lt;/p&gt;&lt;p&gt;2&lt;/p&gt;&lt;/div&gt;&lt;/div&gt;&lt;/div&gt;&lt;/div&gt;" style="whiteSpace=wrap;html=1;" parent="1" vertex="1">
          <mxGeometry x="750" y="-51" width="182" height="92" as="geometry" />
        </mxCell>
        <mxCell id="pWVEINPeNuQL2jkPcfjg-372" value="&lt;div style=&quot;&quot; title=&quot;Page 10&quot; class=&quot;page&quot;&gt;&lt;div class=&quot;section&quot;&gt;&lt;div class=&quot;layoutArea&quot;&gt;&lt;div class=&quot;column&quot;&gt;&lt;p&gt;Szervetlen kémia&lt;/p&gt;&lt;p&gt;3 0 0 f&amp;nbsp;&lt;/p&gt;&lt;p&gt;3&lt;/p&gt;&lt;/div&gt;&lt;/div&gt;&lt;/div&gt;&lt;/div&gt;" style="whiteSpace=wrap;html=1;" parent="1" vertex="1">
          <mxGeometry x="250" y="-51" width="182" height="92" as="geometry" />
        </mxCell>
        <mxCell id="9jgS5PofpSKo_SQZTuaq-32" value="" style="edgeStyle=orthogonalEdgeStyle;rounded=0;orthogonalLoop=1;jettySize=auto;html=1;" edge="1" parent="1" source="pWVEINPeNuQL2jkPcfjg-373" target="pWVEINPeNuQL2jkPcfjg-384">
          <mxGeometry relative="1" as="geometry" />
        </mxCell>
        <mxCell id="9jgS5PofpSKo_SQZTuaq-37" style="edgeStyle=orthogonalEdgeStyle;rounded=0;orthogonalLoop=1;jettySize=auto;html=1;exitX=0.25;exitY=1;exitDx=0;exitDy=0;" edge="1" parent="1" source="pWVEINPeNuQL2jkPcfjg-373" target="pWVEINPeNuQL2jkPcfjg-382">
          <mxGeometry relative="1" as="geometry">
            <Array as="points">
              <mxPoint x="46" y="210" />
              <mxPoint x="-159" y="210" />
            </Array>
          </mxGeometry>
        </mxCell>
        <mxCell id="pWVEINPeNuQL2jkPcfjg-373" value="&lt;div style=&quot;&quot; title=&quot;Page 10&quot; class=&quot;page&quot;&gt;&lt;div class=&quot;section&quot;&gt;&lt;div class=&quot;layoutArea&quot;&gt;&lt;div class=&quot;column&quot;&gt;&lt;p&gt;Biokémia&lt;/p&gt;&lt;p&gt;3 0 0 v&amp;nbsp;&lt;br&gt;&lt;/p&gt;&lt;p&gt;4&lt;/p&gt;&lt;/div&gt;&lt;/div&gt;&lt;/div&gt;&lt;/div&gt;" style="whiteSpace=wrap;html=1;fillColor=#FF99FF;" parent="1" vertex="1">
          <mxGeometry y="99" width="182" height="92" as="geometry" />
        </mxCell>
        <mxCell id="pWVEINPeNuQL2jkPcfjg-374" value="&lt;div style=&quot;&quot; title=&quot;Page 10&quot; class=&quot;page&quot;&gt;&lt;div class=&quot;section&quot;&gt;&lt;div class=&quot;layoutArea&quot;&gt;&lt;div class=&quot;column&quot;&gt;&lt;p&gt;Fizika 1 Elektrodinamika&lt;/p&gt;&lt;p&gt;2 0 0 v&amp;nbsp;&lt;br&gt;&lt;/p&gt;&lt;p&gt;2&lt;/p&gt;&lt;/div&gt;&lt;/div&gt;&lt;/div&gt;&lt;/div&gt;" style="whiteSpace=wrap;html=1;fillColor=#FF99FF;" parent="1" vertex="1">
          <mxGeometry x="-750" y="99" width="182" height="92" as="geometry" />
        </mxCell>
        <mxCell id="pWVEINPeNuQL2jkPcfjg-375" value="&lt;div style=&quot;&quot; title=&quot;Page 10&quot; class=&quot;page&quot;&gt;&lt;div class=&quot;section&quot;&gt;&lt;div class=&quot;layoutArea&quot;&gt;&lt;div class=&quot;column&quot;&gt;&lt;p&gt;Fizikai laboratóriumi gyakorlatoka&lt;/p&gt;&lt;p&gt;0 0 3 f&amp;nbsp;&lt;/p&gt;&lt;p&gt;2&lt;/p&gt;&lt;/div&gt;&lt;/div&gt;&lt;/div&gt;&lt;/div&gt;" style="whiteSpace=wrap;html=1;fillColor=#FF99FF;" parent="1" vertex="1">
          <mxGeometry x="-500" y="99" width="182" height="92" as="geometry" />
        </mxCell>
        <mxCell id="9jgS5PofpSKo_SQZTuaq-59" style="edgeStyle=orthogonalEdgeStyle;rounded=0;orthogonalLoop=1;jettySize=auto;html=1;exitX=0;exitY=0.5;exitDx=0;exitDy=0;entryX=0;entryY=0.5;entryDx=0;entryDy=0;" edge="1" parent="1" source="pWVEINPeNuQL2jkPcfjg-376" target="pWVEINPeNuQL2jkPcfjg-393">
          <mxGeometry relative="1" as="geometry">
            <Array as="points">
              <mxPoint x="-1057" y="148" />
              <mxPoint x="-1057" y="595" />
            </Array>
          </mxGeometry>
        </mxCell>
        <mxCell id="pWVEINPeNuQL2jkPcfjg-376" value="&lt;div style=&quot;&quot; title=&quot;Page 10&quot; class=&quot;page&quot;&gt;&lt;div class=&quot;section&quot;&gt;&lt;div class=&quot;layoutArea&quot;&gt;&lt;div class=&quot;column&quot;&gt;&lt;p&gt;Matematika A3c vegyész és biomérnököknek&lt;/p&gt;&lt;p&gt;2 2 0 v&amp;nbsp;&lt;br&gt;&lt;/p&gt;&lt;p&gt;4&lt;/p&gt;&lt;/div&gt;&lt;/div&gt;&lt;/div&gt;&lt;/div&gt;" style="whiteSpace=wrap;html=1;fillColor=#FF99FF;" parent="1" vertex="1">
          <mxGeometry x="-1000" y="102" width="182" height="92" as="geometry" />
        </mxCell>
        <mxCell id="pWVEINPeNuQL2jkPcfjg-377" value="&lt;div style=&quot;&quot; title=&quot;Page 10&quot; class=&quot;page&quot;&gt;&lt;div class=&quot;section&quot;&gt;&lt;div class=&quot;layoutArea&quot;&gt;&lt;div class=&quot;column&quot;&gt;&lt;p&gt;Biomolekulák kémiája&lt;/p&gt;&lt;p&gt;2 0 5 f&amp;nbsp;&lt;br&gt;&lt;/p&gt;&lt;p&gt;7&lt;/p&gt;&lt;/div&gt;&lt;/div&gt;&lt;/div&gt;&lt;/div&gt;" style="whiteSpace=wrap;html=1;" parent="1" vertex="1">
          <mxGeometry x="250" y="99" width="182" height="92" as="geometry" />
        </mxCell>
        <mxCell id="9jgS5PofpSKo_SQZTuaq-40" style="edgeStyle=orthogonalEdgeStyle;rounded=0;orthogonalLoop=1;jettySize=auto;html=1;exitX=0;exitY=0.5;exitDx=0;exitDy=0;" edge="1" parent="1" source="pWVEINPeNuQL2jkPcfjg-378" target="pWVEINPeNuQL2jkPcfjg-386">
          <mxGeometry relative="1" as="geometry">
            <Array as="points">
              <mxPoint x="-288" y="145" />
              <mxPoint x="-288" y="204" />
              <mxPoint x="-409" y="204" />
            </Array>
          </mxGeometry>
        </mxCell>
        <mxCell id="9jgS5PofpSKo_SQZTuaq-55" style="edgeStyle=orthogonalEdgeStyle;rounded=0;orthogonalLoop=1;jettySize=auto;html=1;exitX=0;exitY=0.75;exitDx=0;exitDy=0;entryX=0;entryY=0.5;entryDx=0;entryDy=0;" edge="1" parent="1" source="pWVEINPeNuQL2jkPcfjg-378" target="pWVEINPeNuQL2jkPcfjg-392">
          <mxGeometry relative="1" as="geometry" />
        </mxCell>
        <mxCell id="pWVEINPeNuQL2jkPcfjg-378" value="&lt;div style=&quot;&quot; title=&quot;Page 10&quot; class=&quot;page&quot;&gt;&lt;div class=&quot;section&quot;&gt;&lt;div class=&quot;layoutArea&quot;&gt;&lt;div class=&quot;column&quot;&gt;&lt;p&gt;Fizikai kémia I.&lt;/p&gt;&lt;p&gt;3 1 0 v&amp;nbsp;&lt;br&gt;&lt;/p&gt;&lt;p&gt;5&lt;/p&gt;&lt;/div&gt;&lt;/div&gt;&lt;/div&gt;&lt;/div&gt;" style="whiteSpace=wrap;html=1;" parent="1" vertex="1">
          <mxGeometry x="-250" y="99" width="182" height="92" as="geometry" />
        </mxCell>
        <mxCell id="pWVEINPeNuQL2jkPcfjg-379" value="&lt;div style=&quot;&quot; title=&quot;Page 10&quot; class=&quot;page&quot;&gt;&lt;div class=&quot;section&quot;&gt;&lt;div class=&quot;layoutArea&quot;&gt;&lt;div class=&quot;column&quot;&gt;&lt;p&gt;Mikrobiológia labor&amp;nbsp;&lt;/p&gt;&lt;p&gt;0 0 4 f&amp;nbsp;&lt;br&gt;&lt;/p&gt;&lt;p&gt;4&lt;/p&gt;&lt;/div&gt;&lt;/div&gt;&lt;/div&gt;&lt;/div&gt;" style="whiteSpace=wrap;html=1;fillColor=#FF99FF;" parent="1" vertex="1">
          <mxGeometry x="-1250" y="102" width="182" height="92" as="geometry" />
        </mxCell>
        <mxCell id="pWVEINPeNuQL2jkPcfjg-380" value="&lt;div style=&quot;&quot; title=&quot;Page 10&quot; class=&quot;page&quot;&gt;&lt;div class=&quot;section&quot;&gt;&lt;div class=&quot;layoutArea&quot;&gt;&lt;div class=&quot;column&quot;&gt;&lt;p&gt;Vegyipari géptan gyakorlat&lt;/p&gt;&lt;p&gt;0 1 2 f&amp;nbsp;&lt;br&gt;&lt;/p&gt;&lt;p&gt;3&lt;/p&gt;&lt;/div&gt;&lt;/div&gt;&lt;/div&gt;&lt;/div&gt;" style="whiteSpace=wrap;html=1;" parent="1" vertex="1">
          <mxGeometry x="750" y="99" width="182" height="92" as="geometry" />
        </mxCell>
        <mxCell id="pWVEINPeNuQL2jkPcfjg-381" value="&lt;div style=&quot;&quot; title=&quot;Page 10&quot; class=&quot;page&quot;&gt;&lt;div class=&quot;section&quot;&gt;&lt;div class=&quot;layoutArea&quot;&gt;&lt;div class=&quot;column&quot;&gt;&lt;p&gt;Szabvál&lt;/p&gt;&lt;p&gt;6&lt;/p&gt;&lt;/div&gt;&lt;/div&gt;&lt;/div&gt;&lt;/div&gt;" style="whiteSpace=wrap;html=1;fillColor=#FFD966;" parent="1" vertex="1">
          <mxGeometry x="-250" y="-200" width="182" height="92" as="geometry" />
        </mxCell>
        <mxCell id="pWVEINPeNuQL2jkPcfjg-382" value="&lt;div style=&quot;&quot; title=&quot;Page 10&quot; class=&quot;page&quot;&gt;&lt;div class=&quot;section&quot;&gt;&lt;div class=&quot;layoutArea&quot;&gt;&lt;div class=&quot;column&quot;&gt;&lt;p&gt;Biokémia labor&lt;/p&gt;&lt;p&gt;1 1 3 f&amp;nbsp;&lt;br&gt;&lt;/p&gt;&lt;p&gt;5&lt;/p&gt;&lt;/div&gt;&lt;/div&gt;&lt;/div&gt;&lt;/div&gt;" style="whiteSpace=wrap;html=1;" parent="1" vertex="1">
          <mxGeometry x="-250" y="249" width="182" height="92" as="geometry" />
        </mxCell>
        <mxCell id="9jgS5PofpSKo_SQZTuaq-53" value="" style="edgeStyle=orthogonalEdgeStyle;rounded=0;orthogonalLoop=1;jettySize=auto;html=1;" edge="1" parent="1" source="pWVEINPeNuQL2jkPcfjg-383" target="pWVEINPeNuQL2jkPcfjg-391">
          <mxGeometry relative="1" as="geometry" />
        </mxCell>
        <mxCell id="9jgS5PofpSKo_SQZTuaq-56" style="edgeStyle=orthogonalEdgeStyle;rounded=0;orthogonalLoop=1;jettySize=auto;html=1;exitX=1;exitY=0.75;exitDx=0;exitDy=0;entryX=0;entryY=0.5;entryDx=0;entryDy=0;" edge="1" parent="1" source="pWVEINPeNuQL2jkPcfjg-383" target="pWVEINPeNuQL2jkPcfjg-394">
          <mxGeometry relative="1" as="geometry" />
        </mxCell>
        <mxCell id="pWVEINPeNuQL2jkPcfjg-383" value="&lt;div style=&quot;&quot; title=&quot;Page 10&quot; class=&quot;page&quot;&gt;&lt;div class=&quot;section&quot;&gt;&lt;div class=&quot;layoutArea&quot;&gt;&lt;div class=&quot;column&quot;&gt;&lt;p&gt;Vegyipari műveletek I&lt;/p&gt;&lt;p&gt;3 2 0 f&lt;/p&gt;&lt;p&gt;6&lt;/p&gt;&lt;/div&gt;&lt;/div&gt;&lt;/div&gt;&lt;/div&gt;" style="whiteSpace=wrap;html=1;" parent="1" vertex="1">
          <mxGeometry x="-1000" y="249" width="182" height="92" as="geometry" />
        </mxCell>
        <mxCell id="pWVEINPeNuQL2jkPcfjg-384" value="&lt;div style=&quot;&quot; title=&quot;Page 10&quot; class=&quot;page&quot;&gt;&lt;div class=&quot;section&quot;&gt;&lt;div class=&quot;layoutArea&quot;&gt;&lt;div class=&quot;column&quot;&gt;&lt;p&gt;Általános genetika&lt;/p&gt;&lt;p&gt;3 2 0 f&lt;/p&gt;&lt;p&gt;6&lt;/p&gt;&lt;/div&gt;&lt;/div&gt;&lt;/div&gt;&lt;/div&gt;" style="whiteSpace=wrap;html=1;" parent="1" vertex="1">
          <mxGeometry y="249" width="182" height="92" as="geometry" />
        </mxCell>
        <mxCell id="9jgS5PofpSKo_SQZTuaq-50" style="edgeStyle=orthogonalEdgeStyle;rounded=0;orthogonalLoop=1;jettySize=auto;html=1;exitX=0.5;exitY=1;exitDx=0;exitDy=0;entryX=0;entryY=0.5;entryDx=0;entryDy=0;" edge="1" parent="1" source="pWVEINPeNuQL2jkPcfjg-385" target="pWVEINPeNuQL2jkPcfjg-389">
          <mxGeometry relative="1" as="geometry" />
        </mxCell>
        <mxCell id="pWVEINPeNuQL2jkPcfjg-385" value="&lt;div style=&quot;&quot; title=&quot;Page 10&quot; class=&quot;page&quot;&gt;&lt;div class=&quot;section&quot;&gt;&lt;div class=&quot;layoutArea&quot;&gt;&lt;div class=&quot;column&quot;&gt;&lt;p&gt;Analitikai kémia I.&lt;/p&gt;&lt;p&gt;4 0 0 f&lt;/p&gt;&lt;p&gt;5&lt;/p&gt;&lt;/div&gt;&lt;/div&gt;&lt;/div&gt;&lt;/div&gt;" style="whiteSpace=wrap;html=1;" parent="1" vertex="1">
          <mxGeometry x="250" y="249" width="182" height="92" as="geometry" />
        </mxCell>
        <mxCell id="pWVEINPeNuQL2jkPcfjg-386" value="&lt;div style=&quot;&quot; title=&quot;Page 10&quot; class=&quot;page&quot;&gt;&lt;div class=&quot;section&quot;&gt;&lt;div class=&quot;layoutArea&quot;&gt;&lt;div class=&quot;column&quot;&gt;&lt;p&gt;Biológiai rendszerek fizikai kémiája&lt;/p&gt;&lt;p&gt;2 1 0 v&lt;/p&gt;&lt;p&gt;4&lt;/p&gt;&lt;/div&gt;&lt;/div&gt;&lt;/div&gt;&lt;/div&gt;" style="whiteSpace=wrap;html=1;" parent="1" vertex="1">
          <mxGeometry x="-500" y="249" width="182" height="92" as="geometry" />
        </mxCell>
        <mxCell id="9jgS5PofpSKo_SQZTuaq-52" style="edgeStyle=orthogonalEdgeStyle;rounded=0;orthogonalLoop=1;jettySize=auto;html=1;exitX=0.5;exitY=1;exitDx=0;exitDy=0;" edge="1" parent="1" source="pWVEINPeNuQL2jkPcfjg-387" target="pWVEINPeNuQL2jkPcfjg-390">
          <mxGeometry relative="1" as="geometry" />
        </mxCell>
        <mxCell id="9jgS5PofpSKo_SQZTuaq-60" style="edgeStyle=orthogonalEdgeStyle;rounded=0;orthogonalLoop=1;jettySize=auto;html=1;" edge="1" parent="1" source="pWVEINPeNuQL2jkPcfjg-387" target="pWVEINPeNuQL2jkPcfjg-396">
          <mxGeometry relative="1" as="geometry">
            <Array as="points">
              <mxPoint x="-533" y="295" />
              <mxPoint x="-533" y="619" />
              <mxPoint x="-409" y="619" />
            </Array>
          </mxGeometry>
        </mxCell>
        <mxCell id="pWVEINPeNuQL2jkPcfjg-387" value="&lt;div style=&quot;&quot; title=&quot;Page 10&quot; class=&quot;page&quot;&gt;&lt;div class=&quot;section&quot;&gt;&lt;div class=&quot;layoutArea&quot;&gt;&lt;div class=&quot;column&quot;&gt;&lt;p&gt;Biomérnöki műveletek folyamatok&lt;/p&gt;&lt;p&gt;4 0 0 v&lt;/p&gt;&lt;p&gt;5&lt;/p&gt;&lt;/div&gt;&lt;/div&gt;&lt;/div&gt;&lt;/div&gt;" style="whiteSpace=wrap;html=1;" parent="1" vertex="1">
          <mxGeometry x="-750" y="249" width="182" height="92" as="geometry" />
        </mxCell>
        <mxCell id="pWVEINPeNuQL2jkPcfjg-388" value="&lt;div style=&quot;&quot; title=&quot;Page 10&quot; class=&quot;page&quot;&gt;&lt;div class=&quot;section&quot;&gt;&lt;div class=&quot;layoutArea&quot;&gt;&lt;div class=&quot;column&quot;&gt;&lt;p&gt;Mikrobiológia 2&lt;/p&gt;&lt;p&gt;2 0 0 v&lt;/p&gt;&lt;p&gt;3&lt;/p&gt;&lt;/div&gt;&lt;/div&gt;&lt;/div&gt;&lt;/div&gt;" style="whiteSpace=wrap;html=1;" parent="1" vertex="1">
          <mxGeometry x="-1250" y="249" width="182" height="92" as="geometry" />
        </mxCell>
        <mxCell id="pWVEINPeNuQL2jkPcfjg-389" value="&lt;div style=&quot;&quot; title=&quot;Page 10&quot; class=&quot;page&quot;&gt;&lt;div class=&quot;section&quot;&gt;&lt;div class=&quot;layoutArea&quot;&gt;&lt;div class=&quot;column&quot;&gt;&lt;p&gt;Analitikai kémia labor&lt;/p&gt;&lt;p&gt;1 0 4 f&lt;/p&gt;&lt;p&gt;4&lt;/p&gt;&lt;/div&gt;&lt;/div&gt;&lt;/div&gt;&lt;/div&gt;" style="whiteSpace=wrap;html=1;" parent="1" vertex="1">
          <mxGeometry x="500" y="399" width="182" height="92" as="geometry" />
        </mxCell>
        <mxCell id="pWVEINPeNuQL2jkPcfjg-390" value="&lt;div style=&quot;&quot; title=&quot;Page 10&quot; class=&quot;page&quot;&gt;&lt;div class=&quot;section&quot;&gt;&lt;div class=&quot;layoutArea&quot;&gt;&lt;div class=&quot;column&quot;&gt;&lt;p&gt;Biomérnöki műveletek labor&lt;/p&gt;&lt;p&gt;0 0 4 f&lt;/p&gt;&lt;p&gt;3&lt;/p&gt;&lt;/div&gt;&lt;/div&gt;&lt;/div&gt;&lt;/div&gt;" style="whiteSpace=wrap;html=1;" parent="1" vertex="1">
          <mxGeometry x="-750" y="400" width="182" height="92" as="geometry" />
        </mxCell>
        <mxCell id="pWVEINPeNuQL2jkPcfjg-391" value="&lt;div style=&quot;&quot; title=&quot;Page 10&quot; class=&quot;page&quot;&gt;&lt;div class=&quot;section&quot;&gt;&lt;div class=&quot;layoutArea&quot;&gt;&lt;div class=&quot;column&quot;&gt;&lt;p&gt;Vegyipari műveletek II&lt;/p&gt;&lt;p&gt;2 1 4 v&lt;/p&gt;&lt;p&gt;6&lt;/p&gt;&lt;/div&gt;&lt;/div&gt;&lt;/div&gt;&lt;/div&gt;" style="whiteSpace=wrap;html=1;" parent="1" vertex="1">
          <mxGeometry x="-1000" y="400" width="182" height="92" as="geometry" />
        </mxCell>
        <mxCell id="pWVEINPeNuQL2jkPcfjg-392" value="&lt;div style=&quot;&quot; title=&quot;Page 10&quot; class=&quot;page&quot;&gt;&lt;div class=&quot;section&quot;&gt;&lt;div class=&quot;layoutArea&quot;&gt;&lt;div class=&quot;column&quot;&gt;&lt;p&gt;A nanotechnológia és kolloidkémia alapjai&lt;br&gt;&lt;/p&gt;&lt;p&gt;3 0 0 f&lt;/p&gt;&lt;p&gt;3&lt;/p&gt;&lt;/div&gt;&lt;/div&gt;&lt;/div&gt;&lt;/div&gt;" style="whiteSpace=wrap;html=1;" parent="1" vertex="1">
          <mxGeometry x="-250" y="550" width="182" height="92" as="geometry" />
        </mxCell>
        <mxCell id="pWVEINPeNuQL2jkPcfjg-393" value="&lt;div style=&quot;&quot; title=&quot;Page 10&quot; class=&quot;page&quot;&gt;&lt;div class=&quot;section&quot;&gt;&lt;div class=&quot;layoutArea&quot;&gt;&lt;div class=&quot;column&quot;&gt;&lt;p&gt;Kisérletek tervezése és értékelése&lt;br&gt;&lt;/p&gt;&lt;p&gt;2 0 1 f&lt;/p&gt;&lt;p&gt;3&lt;/p&gt;&lt;/div&gt;&lt;/div&gt;&lt;/div&gt;&lt;/div&gt;" style="whiteSpace=wrap;html=1;" parent="1" vertex="1">
          <mxGeometry x="-1000" y="549" width="182" height="92" as="geometry" />
        </mxCell>
        <mxCell id="pWVEINPeNuQL2jkPcfjg-394" value="&lt;div style=&quot;&quot; title=&quot;Page 10&quot; class=&quot;page&quot;&gt;&lt;div class=&quot;section&quot;&gt;&lt;div class=&quot;layoutArea&quot;&gt;&lt;div class=&quot;column&quot;&gt;&lt;p&gt;Folyamat irányítás&lt;br&gt;&lt;/p&gt;&lt;p&gt;2 1 1 f&lt;/p&gt;&lt;p&gt;5&lt;/p&gt;&lt;/div&gt;&lt;/div&gt;&lt;/div&gt;&lt;/div&gt;" style="whiteSpace=wrap;html=1;" parent="1" vertex="1">
          <mxGeometry x="-750" y="550" width="182" height="92" as="geometry" />
        </mxCell>
        <mxCell id="pWVEINPeNuQL2jkPcfjg-395" value="&lt;div style=&quot;&quot; title=&quot;Page 10&quot; class=&quot;page&quot;&gt;&lt;div class=&quot;section&quot;&gt;&lt;div class=&quot;layoutArea&quot;&gt;&lt;div class=&quot;column&quot;&gt;&lt;p&gt;Müanyagok biomérnököknek&lt;/p&gt;&lt;p&gt;2 0 0 f&lt;/p&gt;&lt;p&gt;2&lt;/p&gt;&lt;/div&gt;&lt;/div&gt;&lt;/div&gt;&lt;/div&gt;" style="whiteSpace=wrap;html=1;" parent="1" vertex="1">
          <mxGeometry x="250" y="550" width="182" height="92" as="geometry" />
        </mxCell>
        <mxCell id="pWVEINPeNuQL2jkPcfjg-396" value="&lt;div style=&quot;&quot; title=&quot;Page 10&quot; class=&quot;page&quot;&gt;&lt;div class=&quot;section&quot;&gt;&lt;div class=&quot;layoutArea&quot;&gt;&lt;div class=&quot;column&quot;&gt;&lt;p&gt;Biomérnöki számítás és tervezés&lt;br&gt;&lt;/p&gt;&lt;p&gt;0 1 0 f&lt;/p&gt;&lt;p&gt;3&lt;/p&gt;&lt;/div&gt;&lt;/div&gt;&lt;/div&gt;&lt;/div&gt;" style="whiteSpace=wrap;html=1;" parent="1" vertex="1">
          <mxGeometry x="-500" y="699" width="182" height="92" as="geometry" />
        </mxCell>
        <mxCell id="pWVEINPeNuQL2jkPcfjg-419" value="&lt;div style=&quot;&quot; title=&quot;Page 10&quot; class=&quot;page&quot;&gt;&lt;div class=&quot;section&quot;&gt;&lt;div class=&quot;layoutArea&quot;&gt;&lt;div class=&quot;column&quot;&gt;&lt;p&gt;Mik Mak&lt;/p&gt;&lt;p&gt;4 0 0 v&lt;/p&gt;&lt;p&gt;4&lt;/p&gt;&lt;/div&gt;&lt;/div&gt;&lt;/div&gt;&lt;/div&gt;" style="whiteSpace=wrap;html=1;fillColor=#66B2FF;" parent="1" vertex="1">
          <mxGeometry x="-500" y="400" width="182" height="92" as="geometry" />
        </mxCell>
        <mxCell id="pWVEINPeNuQL2jkPcfjg-420" value="&lt;div style=&quot;&quot; title=&quot;Page 10&quot; class=&quot;page&quot;&gt;&lt;div class=&quot;section&quot;&gt;&lt;div class=&quot;layoutArea&quot;&gt;&lt;div class=&quot;column&quot;&gt;&lt;p&gt;Menedzsment és vállalkozás gazdaságtan&lt;/p&gt;&lt;p&gt;4 0 0 f&lt;br&gt;&lt;/p&gt;&lt;p&gt;4&lt;/p&gt;&lt;/div&gt;&lt;/div&gt;&lt;/div&gt;&lt;/div&gt;" style="whiteSpace=wrap;html=1;fillColor=#66B2FF;" parent="1" vertex="1">
          <mxGeometry x="500" y="550" width="182" height="92" as="geometry" />
        </mxCell>
        <mxCell id="pWVEINPeNuQL2jkPcfjg-421" value="&lt;div style=&quot;&quot; title=&quot;Page 10&quot; class=&quot;page&quot;&gt;&lt;div class=&quot;section&quot;&gt;&lt;div class=&quot;layoutArea&quot;&gt;&lt;div class=&quot;column&quot;&gt;&lt;p&gt;Üzleti jog&lt;/p&gt;&lt;p&gt;2 0 0 f&lt;br&gt;&lt;/p&gt;&lt;p&gt;2&lt;/p&gt;&lt;/div&gt;&lt;/div&gt;&lt;/div&gt;&lt;/div&gt;" style="whiteSpace=wrap;html=1;fillColor=#66B2FF;" parent="1" vertex="1">
          <mxGeometry x="-1000" y="700" width="182" height="92" as="geometry" />
        </mxCell>
        <mxCell id="pWVEINPeNuQL2jkPcfjg-422" value="&lt;div style=&quot;&quot; title=&quot;Page 10&quot; class=&quot;page&quot;&gt;&lt;div class=&quot;section&quot;&gt;&lt;div class=&quot;layoutArea&quot;&gt;&lt;div class=&quot;column&quot;&gt;&lt;p&gt;Minőség menedzsment&lt;/p&gt;&lt;p&gt;3 0 0 f&lt;br&gt;&lt;/p&gt;&lt;p&gt;4&lt;/p&gt;&lt;/div&gt;&lt;/div&gt;&lt;/div&gt;&lt;/div&gt;" style="whiteSpace=wrap;html=1;fillColor=#66B2FF;" parent="1" vertex="1">
          <mxGeometry x="-1250" y="700" width="182" height="92" as="geometry" />
        </mxCell>
        <mxCell id="pWVEINPeNuQL2jkPcfjg-423" value="&lt;div style=&quot;&quot; title=&quot;Page 10&quot; class=&quot;page&quot;&gt;&lt;div class=&quot;section&quot;&gt;&lt;div class=&quot;layoutArea&quot;&gt;&lt;div class=&quot;column&quot;&gt;&lt;p&gt;Gazdasági szabvál&lt;/p&gt;&lt;p&gt;2 kredit&lt;/p&gt;&lt;/div&gt;&lt;/div&gt;&lt;/div&gt;&lt;/div&gt;" style="whiteSpace=wrap;html=1;fillColor=#66B2FF;" parent="1" vertex="1">
          <mxGeometry x="-250" y="400" width="182" height="92" as="geometry" />
        </mxCell>
        <mxCell id="pWVEINPeNuQL2jkPcfjg-449" value="Gazdhumán" style="rounded=0;whiteSpace=wrap;html=1;fillColor=#66B2FF;" parent="1" vertex="1">
          <mxGeometry x="997" y="-70" width="100" height="50" as="geometry" />
        </mxCell>
        <mxCell id="pWVEINPeNuQL2jkPcfjg-450" value="Természet tudományos alapismeretek" style="rounded=0;whiteSpace=wrap;html=1;fillColor=#FF99FF;" parent="1" vertex="1">
          <mxGeometry x="997" y="-140" width="100" height="50" as="geometry" />
        </mxCell>
        <mxCell id="pWVEINPeNuQL2jkPcfjg-451" value="&lt;div style=&quot;&quot; title=&quot;Page 10&quot; class=&quot;page&quot;&gt;&lt;div class=&quot;section&quot;&gt;&lt;div class=&quot;layoutArea&quot;&gt;&lt;div class=&quot;column&quot;&gt;&lt;p&gt;Szakmai Törzsanyag&lt;/p&gt;&lt;/div&gt;&lt;/div&gt;&lt;/div&gt;&lt;/div&gt;" style="whiteSpace=wrap;html=1;" parent="1" vertex="1">
          <mxGeometry x="997" y="-210" width="100" height="50" as="geometry" />
        </mxCell>
        <mxCell id="pWVEINPeNuQL2jkPcfjg-500" value="Szabadon választható" style="rounded=0;whiteSpace=wrap;html=1;fillColor=#FFD966;" parent="1" vertex="1">
          <mxGeometry x="997" y="10" width="100" height="50" as="geometry" />
        </mxCell>
        <mxCell id="pWVEINPeNuQL2jkPcfjg-501" value="&lt;div style=&quot;&quot; title=&quot;Page 10&quot; class=&quot;page&quot;&gt;&lt;div class=&quot;section&quot;&gt;&lt;div class=&quot;layoutArea&quot;&gt;&lt;div class=&quot;column&quot;&gt;&lt;p&gt;Szabvál&lt;/p&gt;&lt;p&gt;2&lt;/p&gt;&lt;/div&gt;&lt;/div&gt;&lt;/div&gt;&lt;/div&gt;" style="whiteSpace=wrap;html=1;fillColor=#FFD966;" parent="1" vertex="1">
          <mxGeometry y="400" width="182" height="92" as="geometry" />
        </mxCell>
        <mxCell id="pWVEINPeNuQL2jkPcfjg-502" value="&lt;div style=&quot;&quot; title=&quot;Page 10&quot; class=&quot;page&quot;&gt;&lt;div class=&quot;section&quot;&gt;&lt;div class=&quot;layoutArea&quot;&gt;&lt;div class=&quot;column&quot;&gt;&lt;p&gt;Szakdoge&lt;/p&gt;&lt;p&gt;15&lt;/p&gt;&lt;/div&gt;&lt;/div&gt;&lt;/div&gt;&lt;/div&gt;" style="whiteSpace=wrap;html=1;fillColor=#FFD966;" parent="1" vertex="1">
          <mxGeometry x="-750" y="700" width="182" height="92" as="geometry" />
        </mxCell>
        <mxCell id="tEDepKTHtc-FestoL4mM-17" value="1. félév" style="text;html=1;strokeColor=none;fillColor=none;align=center;verticalAlign=middle;whiteSpace=wrap;rounded=0;fontStyle=1;direction=west;flipV=1;rotation=90;fontSize=32;" parent="1" vertex="1">
          <mxGeometry x="1070" y="-230" width="150" height="150" as="geometry" />
        </mxCell>
        <mxCell id="tEDepKTHtc-FestoL4mM-18" value="2. félév" style="text;html=1;strokeColor=none;fillColor=none;align=center;verticalAlign=middle;whiteSpace=wrap;rounded=0;fontStyle=1;direction=west;flipV=1;rotation=90;fontSize=32;" parent="1" vertex="1">
          <mxGeometry x="1070" y="-80" width="150" height="150" as="geometry" />
        </mxCell>
        <mxCell id="tEDepKTHtc-FestoL4mM-19" value="3. félév" style="text;html=1;strokeColor=none;fillColor=none;align=center;verticalAlign=middle;whiteSpace=wrap;rounded=0;fontStyle=1;direction=west;flipV=1;rotation=90;fontSize=32;" parent="1" vertex="1">
          <mxGeometry x="1070" y="70" width="150" height="150" as="geometry" />
        </mxCell>
        <mxCell id="tEDepKTHtc-FestoL4mM-20" value="4. félév" style="text;html=1;strokeColor=none;fillColor=none;align=center;verticalAlign=middle;whiteSpace=wrap;rounded=0;fontStyle=1;direction=west;flipV=1;rotation=90;fontSize=32;" parent="1" vertex="1">
          <mxGeometry x="1070" y="220" width="150" height="150" as="geometry" />
        </mxCell>
        <mxCell id="tEDepKTHtc-FestoL4mM-21" value="5. félév" style="text;html=1;strokeColor=none;fillColor=none;align=center;verticalAlign=middle;whiteSpace=wrap;rounded=0;fontStyle=1;direction=west;flipV=1;rotation=90;fontSize=32;" parent="1" vertex="1">
          <mxGeometry x="1070" y="370" width="150" height="150" as="geometry" />
        </mxCell>
        <mxCell id="tEDepKTHtc-FestoL4mM-22" value="6. félév" style="text;html=1;strokeColor=none;fillColor=none;align=center;verticalAlign=middle;whiteSpace=wrap;rounded=0;fontStyle=1;direction=west;flipV=1;rotation=90;fontSize=32;" parent="1" vertex="1">
          <mxGeometry x="1070" y="520" width="150" height="150" as="geometry" />
        </mxCell>
        <mxCell id="tEDepKTHtc-FestoL4mM-23" value="7. félév" style="text;html=1;strokeColor=none;fillColor=none;align=center;verticalAlign=middle;whiteSpace=wrap;rounded=0;fontStyle=1;direction=west;flipV=1;rotation=90;fontSize=32;" parent="1" vertex="1">
          <mxGeometry x="1070" y="670" width="150" height="150" as="geometry" />
        </mxCell>
      </root>
    </mxGraphModel>
  </diagram>
</mxfile>
